<svg width="26" height="24" viewBox="0 0 26 24" fill="none" xmlns="http://www.w3.org/2000/svg">
<path fill-rule="evenodd" clip-rule="evenodd" d="M13.484 0.291376C13.385 0.097126 13.1925 4.09991e-07 13 -3.90721e-09V20.2136C13.0863 20.2136 13.1725 20.2336 13.2511 20.2736L20.4494 23.9388C20.8453 24.1404 21.3081 23.8148 21.2325 23.3878L19.8577 15.6248C19.8277 15.4553 19.8857 15.2823 20.0129 15.1622L25.8364 9.66444C26.1567 9.36203 25.98 8.83516 25.5373 8.77286L17.4894 7.64026C17.3137 7.61553 17.1617 7.50859 17.0831 7.35432L13.484 0.291376Z" fill="#FFCC00"/>
<path d="M5.55063 23.9388L12.7489 20.2736C12.8275 20.2336 12.9137 20.2136 13 20.2136V-3.90721e-09C12.8075 -4.17806e-07 12.615 0.0971246 12.516 0.291375L8.91691 7.35432C8.8383 7.5086 8.68633 7.61553 8.51055 7.64026L0.462687 8.77286C0.0200096 8.83516 -0.15675 9.36203 0.163574 9.66444L5.98706 15.1622C6.11426 15.2823 6.17231 15.4553 6.14228 15.6248L4.76754 23.3878C4.69192 23.8148 5.15468 24.1404 5.55063 23.9388Z" fill="#FFE000"/>
</svg>
