<?xml version="1.0" standalone="no"?>
<!DOCTYPE svg PUBLIC "-//W3C//DTD SVG 20010904//EN"
 "http://www.w3.org/TR/2001/REC-SVG-20010904/DTD/svg10.dtd">
<svg version="1.0" xmlns="http://www.w3.org/2000/svg"
 width="832.000000pt" height="832.000000pt" viewBox="0 0 832.000000 832.000000"
 preserveAspectRatio="xMidYMid meet">
<metadata>
Created by potrace 1.14, written by Peter Selinger 2001-2017
</metadata>
<g transform="translate(0.000000,832.000000) scale(0.100000,-0.100000)"
fill="#000000" stroke="none">
<path d="M4079 7980 c-41 -21 -72 -67 -147 -215 -27 -55 -115 -228 -193 -385
-79 -157 -146 -287 -149 -290 -3 -3 -55 -104 -117 -225 -277 -547 -325 -640
-335 -652 -6 -7 -8 -13 -4 -13 3 0 -3 -15 -13 -32 -26 -44 -93 -182 -91 -187
1 -2 -2 -7 -7 -10 -5 -3 -46 -80 -92 -171 -46 -91 -90 -173 -99 -183 -22 -25
-77 -58 -104 -62 -29 -4 -99 -13 -158 -21 -25 -3 -70 -9 -100 -14 -74 -12
-140 -22 -170 -25 -14 -1 -59 -7 -100 -13 -41 -7 -93 -14 -115 -17 -23 -3 -50
-7 -61 -9 -11 -2 -45 -7 -75 -10 -30 -3 -65 -8 -79 -11 -14 -3 -45 -8 -70 -11
-25 -3 -56 -7 -70 -9 -14 -2 -45 -6 -70 -9 -62 -8 -120 -17 -155 -23 -16 -3
-37 -5 -45 -5 -8 0 -35 -4 -60 -10 -24 -5 -65 -11 -90 -13 -64 -7 -170 -21
-220 -30 -14 -3 -47 -7 -75 -10 -27 -3 -75 -10 -105 -15 -30 -5 -77 -12 -105
-16 -27 -3 -59 -8 -70 -9 -11 -2 -43 -6 -70 -9 -48 -6 -73 -10 -140 -21 -16
-2 -55 -8 -85 -11 -83 -11 -95 -12 -95 -14 0 -1 -16 -3 -35 -5 -19 -3 -51 -7
-70 -10 -19 -3 -55 -8 -80 -11 -76 -11 -121 -44 -148 -110 -14 -32 -13 -102 0
-110 5 -3 6 -10 3 -15 -4 -5 -1 -9 4 -9 6 0 11 -5 11 -11 0 -11 3 -14 205
-204 70 -66 151 -142 180 -170 29 -27 112 -106 185 -175 73 -69 156 -147 185
-175 29 -27 99 -93 155 -145 56 -52 130 -122 164 -155 35 -33 125 -118 201
-190 76 -71 163 -154 194 -183 31 -30 101 -96 156 -147 200 -187 283 -271 298
-300 14 -29 15 -79 2 -155 -4 -19 -8 -46 -10 -60 -2 -14 -4 -25 -5 -25 -3 0
-12 -66 -14 -97 0 -16 -3 -28 -6 -28 -3 0 -6 -8 -7 -17 -1 -10 -4 -31 -8 -48
-3 -16 -8 -46 -11 -65 -2 -19 -7 -46 -9 -60 -3 -14 -8 -41 -11 -60 -3 -19 -7
-42 -9 -50 -5 -16 -14 -70 -20 -110 -4 -26 -15 -88 -60 -335 -14 -77 -28 -156
-31 -175 -7 -49 -13 -81 -18 -106 -2 -12 -7 -39 -10 -60 -8 -51 -18 -104 -23
-129 -2 -11 -6 -36 -9 -55 -3 -19 -7 -44 -10 -55 -2 -11 -11 -58 -20 -105 -8
-47 -17 -98 -20 -115 -3 -16 -7 -43 -10 -60 -2 -16 -7 -43 -11 -60 -4 -16 -8
-38 -9 -47 -1 -10 -2 -19 -3 -20 -1 -2 -4 -16 -6 -33 -2 -16 -6 -41 -9 -55 -4
-14 -11 -52 -16 -85 -5 -33 -12 -71 -15 -85 -3 -14 -8 -43 -10 -64 -3 -21 -7
-42 -10 -46 -7 -12 -18 -105 -17 -152 1 -76 60 -141 137 -154 35 -5 123 11
135 26 3 3 33 19 68 35 34 16 62 33 62 37 0 4 6 8 13 8 15 -1 141 62 145 73 2
4 8 7 14 7 12 0 221 102 228 112 7 9 124 62 133 60 4 -1 7 2 7 6 0 5 24 19 53
32 28 13 55 28 58 33 3 5 8 8 10 6 2 -1 49 20 104 48 55 28 183 93 285 144
102 52 188 98 191 102 3 5 10 9 15 9 15 1 78 31 97 47 9 8 17 11 17 6 0 -4 6
-3 13 3 6 6 50 29 97 52 47 23 93 49 103 58 9 8 17 12 17 9 0 -4 42 15 93 42
175 92 202 105 210 103 4 -1 7 2 7 8 0 5 9 10 19 10 11 0 21 3 23 8 4 9 203
108 238 118 49 14 87 2 245 -77 402 -203 793 -403 823 -421 17 -11 32 -16 32
-12 0 4 8 1 18 -7 9 -8 85 -48 167 -89 83 -41 152 -77 155 -80 3 -3 124 -65
270 -138 146 -73 283 -142 305 -154 22 -11 49 -25 59 -31 360 -184 372 -189
421 -192 27 -2 54 0 60 3 5 4 16 7 24 9 24 3 77 62 88 97 12 39 10 73 -12 191
-9 50 -18 106 -20 125 -2 19 -4 35 -5 35 -4 0 -16 61 -24 116 -7 47 -12 76
-21 119 -3 14 -8 41 -11 60 -3 19 -7 45 -10 58 -6 32 -13 73 -19 107 -3 17 -7
40 -9 51 -2 12 -7 37 -10 55 -3 19 -8 45 -10 59 -7 34 -36 200 -41 225 -1 11
-6 38 -9 60 -3 22 -8 51 -11 65 -6 26 -9 39 -20 105 -3 22 -8 51 -11 65 -2 14
-7 40 -10 59 -3 18 -8 43 -10 55 -2 11 -6 35 -9 51 -7 44 -15 87 -21 115 -5
23 -9 50 -19 120 -2 14 -4 25 -5 25 -1 0 -3 9 -5 20 -2 11 -7 36 -10 55 -8 40
-11 60 -19 110 -3 19 -8 46 -11 60 -3 14 -7 41 -10 60 -3 19 -7 46 -10 60 -3
14 -8 39 -10 55 -10 55 -27 150 -33 180 -10 53 -7 138 6 143 7 2 12 9 12 16 0
11 47 57 293 287 38 35 97 91 131 124 35 33 127 121 206 195 79 74 170 161
204 193 34 32 108 102 164 155 57 53 129 121 160 150 32 30 117 111 191 180
74 70 153 145 176 167 84 81 314 298 343 323 57 52 81 118 67 182 -11 49 -100
131 -125 115 -6 -3 -10 -2 -10 2 0 5 -8 9 -17 9 -15 0 -63 7 -148 19 -11 2
-44 6 -74 10 -30 4 -63 9 -75 11 -12 2 -46 7 -76 10 -30 3 -57 7 -60 9 -3 2
-33 6 -67 10 -34 3 -72 8 -85 11 -13 2 -36 6 -53 8 -16 2 -64 9 -105 15 -41 6
-93 13 -115 16 -68 9 -108 15 -145 20 -19 3 -51 7 -70 10 -54 7 -102 14 -130
19 -14 3 -47 7 -75 10 -27 4 -61 8 -75 11 -14 2 -45 7 -70 10 -25 3 -56 7 -70
9 -14 2 -47 7 -73 11 -27 4 -56 8 -65 10 -10 1 -44 6 -77 10 -88 11 -101 13
-147 20 -74 12 -268 39 -358 50 -25 3 -58 8 -75 11 -38 6 -67 10 -130 18 -27
3 -61 8 -75 11 -14 3 -41 7 -60 9 -70 9 -119 44 -154 113 -100 200 -131 259
-140 265 -6 4 -8 8 -4 8 4 0 -17 46 -46 103 -30 56 -114 221 -188 367 -75 146
-206 405 -293 575 -87 171 -195 382 -239 470 -45 88 -84 162 -88 163 -5 2 -8
11 -8 21 0 9 -4 21 -9 27 -4 5 -39 69 -77 143 -82 159 -105 182 -191 186 -42
2 -68 -2 -94 -15z"/>
</g>
</svg>
